# xmcd
#
# Track frame offsets: 
#        188
#        19785
#        56328
#
# Disc length: 1058 seconds
#
# Revision: 1
# Processed by: cddbd v1.5.2PL0 Copyright (c) Steve Scherf et al.
# Submitted via: ExactAudioCopyFreeDBPlugin 1.0
#
DISCID=1a042003
DTITLE=Sheena Easton - What Comes Naturally [CDS)
DYEAR=1991
DGENRE=R&B
TTITLE0=What Comes Naturally (7" Single Edit With Rap)
TTITLE1=What Comes Naturally (Extended Club Version)
TTITLE2=What Comes Naturally (Accapella)
EXTD=
EXTT0=
EXTT1=
EXTT2=
PLAYORDER=
